{"title":"Oculus 2014 CAM x264 - NoGrP","uid":9995615,"size":231159403,"categoryP":"video","categoryS":"movies","magnet":"?xt=urn:btih:57b99d40f81a0268b99b730d862c115fe1a62c33&amp;dn=Oculus+2014+CAM+x264+-+NoGrP&amp;tr=udp%3A%2F%2Ftracker.openbittorrent.com%3A80&amp;tr=udp%3A%2F%2Fopen.demonii.com%3A1337&amp;tr=udp%3A%2F%2Ftracker.coppersurfer.tk%3A6969&amp;tr=udp%3A%2F%2Fexodus.desync.com%3A6969","seeders":5,"leechers":0,"uploader":"TeXTX","files":4,"time":1397914293,"description":"[center][img]hhttp://www.hdwallpapers.in/walls/oculus_2014_horror_movie-wide.jpg[/img]\n &lt;a href=&quot;\nhttp://www.imdb.com/title/tt2388715/&quot; rel=&quot;nofollow&quot; target=&quot;_NEW&quot;&gt;\nhttp://www.imdb.com/title/tt2388715/&lt;/a&gt;\n\n[quote][i]General\nComplete name : oculus 2014 cam x264 nogrp.MP4\nFormat : MPEG-4\nFormat profile : Base Media\nCodec ID : isom\nFile size : 220 MiB\nDuration : 1h 38mn\nOverall bit rate : 312 Kbps\nWriting application : Lavf55.25.100\n\nVideo\nID : 1\nFormat : AVC\nFormat/Info : Advanced Video Codec\nFormat profile : &lt;a class=&quot;__cf_email__&quot; href=&quot;/cdn-cgi/l/email-protection&quot; data-cfemail=&quot;4d05242a250d017f637c&quot;&gt;[email&amp;#160;protected]&lt;/a&gt;&lt;script cf-hash='f9e31' type=&quot;text/javascript&quot;&gt;\n/* &lt;![CDATA[ */!function(){try{var t=&quot;currentScript&quot;in document?document.currentScript:function(){for(var t=document.getElementsByTagName(&quot;script&quot;),e=t.length;e--;)if(t[e].getAttribute(&quot;cf-hash&quot;))return t[e]}();if(t&amp;&amp;t.previousSibling){var e,r,n,i,c=t.previousSibling,a=c.getAttribute(&quot;data-cfemail&quot;);if(a){for(e=&quot;&quot;,r=parseInt(a.substr(0,2),16),n=2;a.length-n;n+=2)i=parseInt(a.substr(n,2),16)^r,e+=String.fromCharCode(i);e=document.createTextNode(e),c.parentNode.replaceChild(e,c)}}}catch(u){}}();/* ]]&gt; */&lt;/script&gt;\nFormat settings, CABAC : Yes\nFormat settings, ReFrames : 4 frames\nCodec ID : avc1\nCodec ID/Info : Advanced Video Coding\nDuration : 1h 38mn\nBit rate : 210 Kbps\nWidth : 576 pixels\nHeight : 308 pixels\nDisplay aspect ratio : 1.85:1\nOriginal display aspect ratio : 1.85:1\nFrame rate mode : Constant\nFrame rate : 23.976 fps\nColor space : YUV\nChroma subsampling : 4:2:0\nBit depth : 8 bits\nScan type : Progressive\nBits/(Pixel*Frame) : 0.049\nStream size : 148 MiB (67%)\nWriting library : x264 core 140 r2 1ca7bb9\n\nAudio\nID : 2\nFormat : AAC\nFormat/Info : Advanced Audio Codec\nFormat profile : LC\nCodec ID : 40\nDuration : 1h 38mn\nDuration_LastFrame : -9ms\nBit rate mode : Constant\nBit rate : 96.0 Kbps\nChannel(s) : 2 channels\nChannel positions : Front: L R\nSampling rate : 44.1 KHz\nCompression mode : Lossy\nStream size : 67.8 MiB (31%)[/i][/quote]\n\n\n[img]http://s4.postimg.org/y307n0ur1/vlcsnap_2014_04_19_11h56m05s70.png[/img]\n[img]http://s4.postimg.org/eih36i4rx/vlcsnap_2014_04_19_11h56m10s127.png[/img]\n[img]http://s4.postimg.org/lzuvzgjot/vlcsnap_2014_04_19_11h56m25s25.png[/img]\n\n[color=red]Video is 7 Mins Missing. Also note m not owner of this file. m owner of .torrent[/color][/center]","torrent":{"xt":"urn:btih:57b99d40f81a0268b99b730d862c115fe1a62c33","amp;dn":"Oculus+2014+CAM+x264+-+NoGrP","amp;tr":["udp%3A%2F%2Ftracker.openbittorrent.com%3A80","udp%3A%2F%2Fopen.demonii.com%3A1337","udp%3A%2F%2Ftracker.coppersurfer.tk%3A6969","udp%3A%2F%2Fexodus.desync.com%3A6969"],"infoHash":"57b99d40f81a0268b99b730d862c115fe1a62c33","infoHashBuffer":{"type":"Buffer","data":[87,185,157,64,248,26,2,104,185,155,115,13,134,44,17,95,225,166,44,51]},"announce":[],"urlList":[]}}